<svg xmlns="http://www.w3.org/2000/svg" version="1.1" width="640" height="30">
  <style>
    /* <![CDATA[ */
    text {
        font-family: 'Helvetica Neue', sans-serif;
        font-weight: 300;
        fill: white;
    }
    rect {
        fill: #bbb;
    }
    /* ]]> */
  </style>
  <rect x="0" y="0" width="9" height="30" />
  <rect x="10" y="0" width="9" height="30" />
  <rect x="20" y="0" width="9" height="30" />
  <rect x="30" y="0" width="9" height="30" />
  <rect x="40" y="0" width="9" height="30" />
  <rect x="50" y="0" width="9" height="30" />
  <rect x="60" y="0" width="9" height="30" />
  <rect x="70" y="0" width="9" height="30" />
  <rect x="80" y="0" width="9" height="30" />
  <rect x="90" y="0" width="9" height="30" />
  <rect x="100" y="0" width="9" height="30" />
  <rect x="110" y="0" width="9" height="30" />
  <rect x="120" y="0" width="9" height="30" />
  <rect x="130" y="0" width="9" height="30" />
  <rect x="140" y="0" width="9" height="30" />
  <rect x="150" y="0" width="9" height="30" />
  <rect x="160" y="0" width="9" height="30" />
  <rect x="170" y="0" width="9" height="30" />
  <rect x="180" y="0" width="9" height="30" />
  <rect x="190" y="0" width="9" height="30" />
  <rect x="200" y="0" width="9" height="30" />
  <rect x="210" y="0" width="9" height="30" />
  <rect x="220" y="0" width="9" height="30" />
  <rect x="230" y="0" width="9" height="30" />
  <rect x="240" y="0" width="9" height="30" />
  <rect x="250" y="0" width="9" height="30" />
  <rect x="260" y="0" width="9" height="30" />
  <rect x="270" y="0" width="9" height="30" />
  <rect x="280" y="0" width="9" height="30" />
  <rect x="290" y="0" width="9" height="30" />
  <rect x="300" y="0" width="9" height="30" />
  <rect x="310" y="0" width="9" height="30" />
  <rect x="320" y="0" width="9" height="30" />
  <rect x="330" y="0" width="9" height="30" />
  <rect x="340" y="0" width="9" height="30" />
  <rect x="350" y="0" width="9" height="30" />
  <rect x="360" y="0" width="9" height="30" />
  <rect x="370" y="0" width="9" height="30" />
  <rect x="380" y="0" width="9" height="30" />
  <rect x="390" y="0" width="9" height="30" />
  <rect x="400" y="0" width="9" height="30" />
  <rect x="410" y="0" width="9" height="30" />
  <rect x="420" y="0" width="9" height="30" />
  <rect x="430" y="0" width="9" height="30" />
  <rect x="440" y="0" width="9" height="30" />
  <rect x="450" y="0" width="9" height="30" />
  <rect x="460" y="0" width="9" height="30" />
  <rect x="470" y="0" width="9" height="30" />
  <rect x="480" y="0" width="9" height="30" />
  <rect x="490" y="0" width="9" height="30" />
  <rect x="500" y="0" width="9" height="30" />
  <rect x="510" y="0" width="9" height="30" />
  <rect x="520" y="0" width="9" height="30" />
  <rect x="530" y="0" width="9" height="30" />
  <rect x="540" y="0" width="9" height="30" />
  <rect x="550" y="0" width="9" height="30" />
  <rect x="560" y="0" width="9" height="30" />
  <rect x="570" y="0" width="9" height="30" />
  <rect x="580" y="0" width="9" height="30" />
  <rect x="590" y="0" width="9" height="30" />
  <rect x="600" y="0" width="9" height="30" />
  <rect x="610" y="0" width="9" height="30" />
  <rect x="620" y="0" width="9" height="30" />
  <rect x="630" y="0" width="10" height="30" />
</svg>