<svg xmlns="http://www.w3.org/2000/svg" version="1.1" width="400" height="400">
  <style>
    /* <![CDATA[ */
    path.arc {
      fill: #BBB;
      stroke: #FFF;
    }
    /* ]]> */
  </style>
  <path d="M200 0a200 200 0 0 1 19.6 1l-3.4 34.8A165 165 0 0 0 200 35z" class="arc"/>
  <path d="M219.6 1A200 200 0 0 1 239 3.8l-6.8 34.4a165 165 0 0 0-16-2.4z" class="arc"/>
  <path d="M239 3.8a200 200 0 0 1 19 4.8L248 42a165 165 0 0 0-15.8-3.8z" class="arc"/>
  <path d="M258 8.6a200 200 0 0 1 18.5 6.6L263 47.6a165 165 0 0 0-15-5.5z" class="arc"/>
  <path d="M276.5 15.2a200 200 0 0 1 17.8 8.4l-16.5 31a165 165 0 0 0-14.7-7z" class="arc"/>
  <path d="M294.3 23.6a200 200 0 0 1 16.8 10L291.8 63a165 165 0 0 0-14-8.3z" class="arc"/>
  <path d="M311 33.7a200 200 0 0 1 16 11.7l-22.3 27a165 165 0 0 0-13-9.6z" class="arc"/>
  <path d="M327 45.4a200 200 0 0 1 14.4 13.2l-24.7 24.7a165 165 0 0 0-12-10.8z" class="arc"/>
  <path d="M341.4 58.6A200 200 0 0 1 354.6 73l-27 22.3a165 165 0 0 0-11-12z" class="arc"/>
  <path d="M354.6 73a200 200 0 0 1 11.7 16l-29 19.3a165 165 0 0 0-9.8-13z" class="arc"/>
  <path d="M366.3 89a200 200 0 0 1 10 16.7l-30.8 16.5a165 165 0 0 0-8.3-14z" class="arc"/>
  <path d="M376.4 105.7a200 200 0 0 1 8.4 17.8L352.4 137a165 165 0 0 0-7-14.8z" class="arc"/>
  <path d="M384.8 123.5a200 200 0 0 1 6.6 18.4L358 152a165 165 0 0 0-5.6-15z" class="arc"/>
  <path d="M391.4 142a200 200 0 0 1 4.8 19l-34.4 6.8a165 165 0 0 0-4-15.7z" class="arc"/>
  <path d="M396.2 161a200 200 0 0 1 2.8 19.4l-34.8 3.4a165 165 0 0 0-2.4-16z" class="arc"/>
  <path d="M399 180.4a200 200 0 0 1 1 19.6h-35a165 165 0 0 0-.8-16.2z" class="arc"/>
  <path d="M400 200a200 200 0 0 1-1 19.6l-34.8-3.4a165 165 0 0 0 .8-16.2z" class="arc"/>
  <path d="M399 219.6a200 200 0 0 1-2.8 19.4l-34.4-6.8a165 165 0 0 0 2.4-16z" class="arc"/>
  <path d="M396.2 239a200 200 0 0 1-4.8 19L358 248a165 165 0 0 0 3.8-15.8z" class="arc"/>
  <path d="M391.4 258a200 200 0 0 1-6.6 18.5L352.4 263a165 165 0 0 0 5.5-15z" class="arc"/>
  <path d="M384.8 276.5a200 200 0 0 1-8.4 17.8l-31-16.5a165 165 0 0 0 7-14.7z" class="arc"/>
  <path d="M376.4 294.3a200 200 0 0 1-10 16.8L337 291.8a165 165 0 0 0 8.3-14z" class="arc"/>
  <path d="M366.3 311a200 200 0 0 1-11.7 16l-27-22.3a165 165 0 0 0 9.6-13z" class="arc"/>
  <path d="M354.6 327a200 200 0 0 1-13.2 14.4l-24.7-24.7a165 165 0 0 0 10.8-12z" class="arc"/>
  <path d="M341.4 341.4a200 200 0 0 1-14.5 13.2l-22.3-27a165 165 0 0 0 12-11z" class="arc"/>
  <path d="M327 354.6a200 200 0 0 1-16 11.7l-19.3-29a165 165 0 0 0 13-9.8z" class="arc"/>
  <path d="M311 366.3a200 200 0 0 1-16.7 10l-16.5-30.8a165 165 0 0 0 14-8.3z" class="arc"/>
  <path d="M294.3 376.4a200 200 0 0 1-17.8 8.4L263 352.4a165 165 0 0 0 14.8-7z" class="arc"/>
  <path d="M276.5 384.8a200 200 0 0 1-18.4 6.6L248 358a165 165 0 0 0 15-5.6z" class="arc"/>
  <path d="M258 391.4a200 200 0 0 1-19 4.8l-6.8-34.4a165 165 0 0 0 15.7-4z" class="arc"/>
  <path d="M239 396.2a200 200 0 0 1-19.4 2.8l-3.4-34.8a165 165 0 0 0 16-2.4z" class="arc"/>
  <path d="M219.6 399a200 200 0 0 1-19.6 1v-35a165 165 0 0 0 16.2-.8z" class="arc"/>
  <path d="M200 400a200 200 0 0 1-19.6-1l3.4-34.8a165 165 0 0 0 16.2.8z" class="arc"/>
  <path d="M180.4 399a200 200 0 0 1-19.4-2.8l6.8-34.4a165 165 0 0 0 16 2.4z" class="arc"/>
  <path d="M161 396.2a200 200 0 0 1-19-4.8l10-33.5a165 165 0 0 0 15.8 3.8z" class="arc"/>
  <path d="M142 391.4a200 200 0 0 1-18.5-6.6l13.4-32.4a165 165 0 0 0 15 5.5z" class="arc"/>
  <path d="M123.5 384.8a200 200 0 0 1-17.8-8.4l16.5-31a165 165 0 0 0 14.7 7z" class="arc"/>
  <path d="M105.7 376.4a200 200 0 0 1-16.8-10l19.3-29.2a165 165 0 0 0 14 8.3z" class="arc"/>
  <path d="M89 366.3a200 200 0 0 1-16-11.7l22.3-27a165 165 0 0 0 13 9.6z" class="arc"/>
  <path d="M73 354.6a200 200 0 0 1-14.4-13.2l24.7-24.7a165 165 0 0 0 12 10.8z" class="arc"/>
  <path d="M58.6 341.4A200 200 0 0 1 45.4 327l27-22.3a165 165 0 0 0 11 12z" class="arc"/>
  <path d="M45.4 327a200 200 0 0 1-11.7-16l29-19.3a165 165 0 0 0 9.8 13z" class="arc"/>
  <path d="M33.7 311a200 200 0 0 1-10-16.7l30.8-16.5a165 165 0 0 0 8.3 14z" class="arc"/>
  <path d="M23.6 294.3a200 200 0 0 1-8.4-17.8L47.6 263a165 165 0 0 0 7 14.8z" class="arc"/>
  <path d="M15.2 276.5A200 200 0 0 1 8.6 258L42 248a165 165 0 0 0 5.6 15z" class="arc"/>
  <path d="M8.6 258a200 200 0 0 1-4.8-19l34.4-6.8a165 165 0 0 0 4 15.7z" class="arc"/>
  <path d="M3.8 239A200 200 0 0 1 1 219.6l34.8-3.4a165 165 0 0 0 2.4 16z" class="arc"/>
  <path d="M1 219.6A200 200 0 0 1 0 200h35a165 165 0 0 0 .8 16.2z" class="arc"/>
  <path d="M0 200a200 200 0 0 1 1-19.6l34.8 3.4A165 165 0 0 0 35 200z" class="arc"/>
  <path d="M1 180.4A200 200 0 0 1 3.8 161l34.4 6.8a165 165 0 0 0-2.4 16z" class="arc"/>
  <path d="M3.8 161a200 200 0 0 1 4.8-19L42 152a165 165 0 0 0-3.8 15.8z" class="arc"/>
  <path d="M8.6 142a200 200 0 0 1 6.6-18.5L47.6 137a165 165 0 0 0-5.5 15z" class="arc"/>
  <path d="M15.2 123.5a200 200 0 0 1 8.4-17.8l31 16.5a165 165 0 0 0-7 14.7z" class="arc"/>
  <path d="M23.6 105.7a200 200 0 0 1 10-16.8L63 108.2a165 165 0 0 0-8.3 14z" class="arc"/>
  <path d="M33.7 89a200 200 0 0 1 11.7-16l27 22.3a165 165 0 0 0-9.6 13z" class="arc"/>
  <path d="M45.4 73a200 200 0 0 1 13.2-14.4l24.7 24.7a165 165 0 0 0-10.8 12z" class="arc"/>
  <path d="M58.6 58.6A200 200 0 0 1 73 45.4l22.3 27a165 165 0 0 0-12 11z" class="arc"/>
  <path d="M73 45.4a200 200 0 0 1 16-11.7l19.3 29a165 165 0 0 0-13 9.8z" class="arc"/>
  <path d="M89 33.7a200 200 0 0 1 16.7-10l16.5 30.8a165 165 0 0 0-14 8.3z" class="arc"/>
  <path d="M105.7 23.6a200 200 0 0 1 17.8-8.4L137 47.6a165 165 0 0 0-14.8 7z" class="arc"/>
  <path d="M123.5 15.2A200 200 0 0 1 142 8.6L152 42a165 165 0 0 0-15 5.6z" class="arc"/>
  <path d="M142 8.6a200 200 0 0 1 19-4.8l6.8 34.4a165 165 0 0 0-15.7 4z" class="arc"/>
  <path d="M161 3.8A200 200 0 0 1 180.4 1l3.4 34.8a165 165 0 0 0-16 2.4z" class="arc"/>
  <path d="M180.4 1A200 200 0 0 1 200 0v35a165 165 0 0 0-16.2.8z" class="arc"/>
</svg>